<svg xmlns="http://www.w3.org/2000/svg" viewBox="0 0 1200 630" fill="none">
  <rect width="1200" height="630" fill="#07130F"/>
  <rect x="100" y="100" width="1000" height="430" rx="24" fill="#0F1E16" stroke="#10B981" stroke-opacity="0.2" stroke-width="1"/>
  <!-- Pipeline boxes -->
  <rect x="180" y="240" width="160" height="60" rx="12" fill="#064E3B" fill-opacity="0.5" stroke="#10B981" stroke-opacity="0.3" stroke-width="1"/>
  <text x="260" y="276" text-anchor="middle" font-family="Inter, sans-serif" font-size="14" font-weight="600" fill="#10B981">Intake</text>
  <path d="M350 270L390 270" stroke="#10B981" stroke-opacity="0.5" stroke-width="2"/>
  <polygon points="395,264 405,270 395,276" fill="#10B981" fill-opacity="0.5"/>
  <rect x="410" y="240" width="160" height="60" rx="12" fill="#064E3B" fill-opacity="0.5" stroke="#10B981" stroke-opacity="0.3" stroke-width="1"/>
  <text x="490" y="276" text-anchor="middle" font-family="Inter, sans-serif" font-size="14" font-weight="600" fill="#10B981">Interpret</text>
  <path d="M580 270L620 270" stroke="#10B981" stroke-opacity="0.5" stroke-width="2"/>
  <polygon points="625,264 635,270 625,276" fill="#10B981" fill-opacity="0.5"/>
  <rect x="640" y="240" width="160" height="60" rx="12" fill="#064E3B" fill-opacity="0.5" stroke="#10B981" stroke-opacity="0.3" stroke-width="1"/>
  <text x="720" y="276" text-anchor="middle" font-family="Inter, sans-serif" font-size="14" font-weight="600" fill="#10B981">Implement</text>
  <path d="M810 270L850 270" stroke="#10B981" stroke-opacity="0.5" stroke-width="2"/>
  <polygon points="855,264 865,270 855,276" fill="#10B981" fill-opacity="0.5"/>
  <rect x="870" y="240" width="160" height="60" rx="12" fill="#064E3B" fill-opacity="0.5" stroke="#10B981" stroke-opacity="0.3" stroke-width="1"/>
  <text x="950" y="276" text-anchor="middle" font-family="Inter, sans-serif" font-size="14" font-weight="600" fill="#10B981">Deploy</text>
  <text x="600" y="400" text-anchor="middle" font-family="Inter, sans-serif" font-size="28" font-weight="600" fill="#FAFAFA">Automated Change Pipeline</text>
  <text x="600" y="440" text-anchor="middle" font-family="Inter, sans-serif" font-size="16" fill="#71717A">cmschat.ai</text>
</svg>
